<svg xmlns="http://www.w3.org/2000/svg" viewBox="0 0 3240 2240" width="100%" role="img" aria-label="Plan view">
<style>
      .w{stroke:#1f2937;stroke-width:14;fill:none;stroke-linecap:square}
      .g{stroke:#e5e7eb;stroke-width:1}
      .m{fill:#60a5fa;fill-opacity:.28;stroke:#1d4ed8;stroke-width:2}
      .m.hi{fill:#f59e0b;fill-opacity:.45;stroke:#b45309;stroke-width:3}
      .lbl{font:600 26px ui-monospace,monospace;fill:#111827}
      .dim{font:500 24px ui-monospace,monospace;fill:#6b7280}
      .cor{fill:#dc2626}
      .op{stroke:#0ea5e9;stroke-width:6;fill:none}
    </style>
<line class="g" x1="120" y1="2120" x2="120" y2="120"/>
<line class="g" x1="370" y1="2120" x2="370" y2="120"/>
<line class="g" x1="620" y1="2120" x2="620" y2="120"/>
<line class="g" x1="870" y1="2120" x2="870" y2="120"/>
<line class="g" x1="1120" y1="2120" x2="1120" y2="120"/>
<line class="g" x1="1370" y1="2120" x2="1370" y2="120"/>
<line class="g" x1="1620" y1="2120" x2="1620" y2="120"/>
<line class="g" x1="1870" y1="2120" x2="1870" y2="120"/>
<line class="g" x1="2120" y1="2120" x2="2120" y2="120"/>
<line class="g" x1="2370" y1="2120" x2="2370" y2="120"/>
<line class="g" x1="2620" y1="2120" x2="2620" y2="120"/>
<line class="g" x1="2870" y1="2120" x2="2870" y2="120"/>
<line class="g" x1="3120" y1="2120" x2="3120" y2="120"/>
<line class="g" x1="120" y1="2120" x2="3120" y2="2120"/>
<line class="g" x1="120" y1="1870" x2="3120" y2="1870"/>
<line class="g" x1="120" y1="1620" x2="3120" y2="1620"/>
<line class="g" x1="120" y1="1370" x2="3120" y2="1370"/>
<line class="g" x1="120" y1="1120" x2="3120" y2="1120"/>
<line class="g" x1="120" y1="870" x2="3120" y2="870"/>
<line class="g" x1="120" y1="620" x2="3120" y2="620"/>
<line class="g" x1="120" y1="370" x2="3120" y2="370"/>
<line class="g" x1="120" y1="120" x2="3120" y2="120"/>
<line class="op" x1="1320" y1="2120" x2="2120" y2="2120"/>
<line class="w" x1="120" y1="2120" x2="3120" y2="2120"/>
<line class="w" x1="3120" y1="2120" x2="3120" y2="120"/>
<line class="w" x1="3120" y1="120" x2="120" y2="120"/>
<line class="w" x1="120" y1="120" x2="120" y2="2120"/>
<polygon class="m" points="120,2120 720,2120 720,1560 120,1560"><title>a1 600 mm</title></polygon>
<polygon class="m" points="720,2120 1320,2120 1320,1560 720,1560"><title>a2 600 mm</title></polygon>
<polygon class="m" points="2120,2120 2720,2120 2720,1560 2120,1560"><title>a3 600 mm</title></polygon>
<polygon class="m" points="3120,120 2320,120 2320,470 3120,470"><title>c1 800 mm</title></polygon>
<polygon class="m" points="2320,120 1520,120 1520,470 2320,470"><title>c2 800 mm</title></polygon>
<text class="dim" x="1620" y="2210" text-anchor="middle">wall-a 3000 @ 0°</text>
<text class="dim" x="3210" y="1120" text-anchor="middle">wall-b 2000 @ 90°</text>
<text class="dim" x="1620" y="30" text-anchor="middle">wall-c 3000 @ 180°</text>
<text class="dim" x="30" y="1120" text-anchor="middle">wall-d 2000 @ -90°</text>
<text class="lbl" x="420" y="1840" text-anchor="middle">a1<tspan class="dim" x="420" dy="28">600</tspan></text>
<text class="lbl" x="1020" y="1840" text-anchor="middle">a2<tspan class="dim" x="1020" dy="28">600</tspan></text>
<text class="lbl" x="2420" y="1840" text-anchor="middle">a3<tspan class="dim" x="2420" dy="28">600</tspan></text>
<text class="lbl" x="2720" y="295" text-anchor="middle">c1<tspan class="dim" x="2720" dy="28">800</tspan></text>
<text class="lbl" x="1920" y="295" text-anchor="middle">c2<tspan class="dim" x="1920" dy="28">800</tspan></text>
<circle class="cor" cx="3120" cy="2120" r="9"/>
<text class="dim" x="3013.93" y="2013.93" text-anchor="middle">90° · free</text>
<circle class="cor" cx="3120" cy="120" r="9"/>
<text class="dim" x="3013.93" y="226.07" text-anchor="middle">90° · c1</text>
<circle class="cor" cx="120" cy="120" r="9"/>
<text class="dim" x="226.07" y="226.07" text-anchor="middle">90° · free</text>
<circle class="cor" cx="120" cy="2120" r="9"/>
<text class="dim" x="226.07" y="2013.93" text-anchor="middle">90° · a1</text>
</svg>